# xmcd
#
# Track frame offsets:
#	150
#	24926
#	50296
#	67830
#	90820
#	110465
#	130030
#	152006
#	159332
#	186315
#	204995
#
# Disc length: 2996 seconds
#
# Revision: 0
# Processed by: cddbd v1.5.2PL0 Copyright (c) Steve Scherf et al.
# Submitted via: audiograbber 1.83.01
#
DISCID=780bb20b
DTITLE=Saga - House Of Cards [CD-R]
DYEAR=2001
DGENRE=Progressive Rock
TTITLE0=God Knows
TTITLE1=The Runaway
TTITLE2=Always There
TTITLE3=Ashes To Ashes (Chapter 11)
TTITLE4=Once In A Lifetime
TTITLE5=Only Human
TTITLE6=That's How We Like It!
TTITLE7=Watching The Clock [Instrumental]
TTITLE8=We'll Meet Again (Chapter 15)
TTITLE9=Money Talks
TTITLE10=House Of Cards
EXTD=
EXTT0=
EXTT1=
EXTT2=
EXTT3=
EXTT4=
EXTT5=
EXTT6=
EXTT7=
EXTT8=
EXTT9=
EXTT10=
PLAYORDER=
